<svg width="1103" height="161" viewBox="0 0 1103 161" fill="none" xmlns="http://www.w3.org/2000/svg">
<g filter="url(#filter0_d)">
<path d="M1059.4 108.043L1062.45 120.035H1030.03L1033.08 108.043C1037.21 109.434 1041.64 110.19 1046.24 110.19C1050.84 110.19 1055.27 109.434 1059.4 108.043Z" fill="#C5C8F5" stroke="black"/>
<path d="M1033.08 108.043C1037.12 109.403 1041.44 110.156 1045.94 110.189V120.035H1030.03L1033.08 108.043Z" fill="#A8ADEF" stroke="black"/>
<path d="M1005.96 68.9144C1005.96 46.6708 1024 28.6389 1046.24 28.6389C1068.48 28.6389 1086.52 46.6708 1086.52 68.9144C1086.52 86.478 1075.27 101.414 1059.59 106.922C1055.41 108.389 1050.92 109.19 1046.24 109.19C1041.56 109.19 1037.07 108.389 1032.89 106.922C1017.21 101.414 1005.96 86.478 1005.96 68.9144Z" fill="#ACABB1" stroke="black"/>
<path d="M1057.62 68.914C1057.62 75.1961 1052.52 80.2889 1046.24 80.2889C1039.96 80.2889 1034.87 75.1961 1034.87 68.914C1034.87 62.6319 1039.96 57.5392 1046.24 57.5392C1052.52 57.5392 1057.62 62.6319 1057.62 68.914Z" fill="white" stroke="black"/>
<path d="M1049.42 68.9141C1049.42 70.6675 1047.99 72.0891 1046.24 72.0891C1044.49 72.0891 1043.07 70.6675 1043.07 68.9141C1043.07 67.1605 1044.49 65.7391 1046.24 65.7391C1047.99 65.7391 1049.42 67.1605 1049.42 68.9141Z" fill="#FF5023" stroke="black"/>
<path d="M1021.24 94.6187L1034.92 80.9403C1036.22 82.1655 1037.72 83.182 1039.37 83.9359L1031.86 101.767C1027.89 100.03 1024.3 97.5953 1021.24 94.6187Z" fill="#957755" stroke="black"/>
<path d="M1034.21 80.2333L1020.54 93.9117C1017.46 90.7497 1014.97 87.0217 1013.22 82.9003L1031.14 75.6038C1031.9 77.3209 1032.94 78.8842 1034.21 80.2333Z" fill="#EB358A" stroke="black"/>
<path d="M1030.76 74.6778L1012.84 81.9742C1011.31 78.0743 1010.45 73.8421 1010.39 69.4144H1029.73C1029.79 71.2606 1030.15 73.031 1030.76 74.6778Z" fill="#7C84E7" stroke="black"/>
<path d="M1013 55.453L1030.83 62.965C1030.17 64.6641 1029.79 66.4987 1029.73 68.4147H1010.39C1010.45 63.8346 1011.37 59.4632 1013 55.453Z" fill="#016EF1" stroke="black"/>
<path d="M1071.94 93.9116L1058.27 80.2331C1059.49 78.9318 1060.51 77.4314 1061.26 75.7853L1079.09 83.2972C1077.36 87.2614 1074.92 90.8512 1071.94 93.9116Z" fill="#FE0B37" stroke="black"/>
<path d="M1032.78 102.156L1040.29 84.3247C1041.99 84.9812 1043.82 85.3647 1045.74 85.4216V104.766C1041.16 104.703 1036.79 103.782 1032.78 102.156Z" fill="#3E3D43" stroke="black"/>
<path d="M1057.56 80.9403L1071.24 94.6188C1068.08 97.6939 1064.35 100.189 1060.23 101.936L1052.93 84.0167C1054.65 83.2552 1056.21 82.2102 1057.56 80.9403Z" fill="#A258CB" stroke="black"/>
<path d="M1052 84.3943L1059.3 102.314C1055.4 103.84 1051.17 104.705 1046.74 104.766V85.4217C1048.59 85.3666 1050.36 85.0078 1052 84.3943Z" fill="#2487FF" stroke="black"/>
<path d="M1060.62 36.0613C1064.59 37.7992 1068.18 40.2335 1071.24 43.2101L1057.56 56.8885C1056.26 55.6634 1054.76 54.647 1053.11 53.8929L1060.62 36.0613Z" fill="#ACABB1" stroke="black"/>
<path d="M1058.27 57.5956L1071.94 43.9172C1075.02 47.0792 1077.51 50.8073 1079.26 54.9286L1061.34 62.2251C1060.58 60.508 1059.54 58.9447 1058.27 57.5956Z" fill="#FEDA44" stroke="black"/>
<path d="M1061.72 63.1512L1079.64 55.8547C1081.17 59.7547 1082.03 63.9868 1082.09 68.4145H1062.75C1062.69 66.5684 1062.33 64.7979 1061.72 63.1512Z" fill="#FF9911" stroke="black"/>
<path d="M1061.65 74.8639C1062.31 73.1647 1062.69 71.3301 1062.75 69.4143H1082.09C1082.03 73.9942 1081.11 78.3657 1079.48 82.3759L1061.65 74.8639Z" fill="#FF6342" stroke="black"/>
<path d="M1013.39 54.5315C1015.13 50.5673 1017.56 46.9775 1020.54 43.9171L1034.21 57.5956C1032.99 58.8969 1031.97 60.3974 1031.22 62.0434L1013.39 54.5315Z" fill="#00D8DF" stroke="black"/>
<path d="M1046.74 33.063C1051.32 33.1256 1055.69 34.047 1059.7 35.6724L1052.19 53.5041C1050.49 52.8477 1048.66 52.4642 1046.74 52.4072V33.063Z" fill="#CCFB5D" stroke="black"/>
<path d="M1034.92 56.8883L1021.24 43.2099C1024.41 40.1347 1028.13 37.64 1032.25 35.8924L1039.55 53.812C1037.83 54.5737 1036.27 55.6186 1034.92 56.8883Z" fill="#00EED1" stroke="black"/>
<path d="M1040.48 53.4347L1033.18 35.5151C1037.08 33.9886 1041.31 33.1236 1045.74 33.063V52.4072C1043.89 52.4623 1042.12 52.8211 1040.48 53.4347Z" fill="#65C27C" stroke="black"/>
<path d="M1046.24 73.5541C1043.68 73.5541 1041.6 71.4724 1041.6 68.9144C1041.6 66.3564 1043.68 64.2746 1046.24 64.2746C1048.8 64.2746 1050.88 66.3566 1050.88 68.9144C1050.88 71.4722 1048.8 73.5541 1046.24 73.5541ZM1046.24 71.6244C1047.74 71.6244 1048.95 70.4092 1048.95 68.9144C1048.95 67.4195 1047.74 66.2043 1046.24 66.2043C1044.75 66.2043 1043.53 67.4196 1043.53 68.9144C1043.53 70.4092 1044.75 71.6244 1046.24 71.6244Z" fill="black" stroke="black"/>
<mask id="path-23-inside-1" fill="white">
<path d="M1044.78 106.704V106.734H1046.24H1047.71V106.704C1051.63 106.555 1055.46 105.807 1059.14 104.472L1059.15 104.501L1060.5 103.949C1060.5 103.949 1060.51 103.948 1060.51 103.948L1061.86 103.395L1061.85 103.367C1065.56 101.688 1068.93 99.4428 1071.93 96.6711L1071.95 96.6928L1072.98 95.657C1072.99 95.6543 1072.99 95.6516 1072.99 95.649L1074.02 94.6213L1074 94.5998C1076.66 91.7213 1078.85 88.4818 1080.5 84.9387L1080.53 84.9506L1081.1 83.6082C1081.1 83.6061 1081.1 83.6037 1081.1 83.6016L1081.67 82.2512L1081.64 82.2391C1083.07 78.44 1083.88 74.4631 1084.03 70.3795H1084.06V68.9146V67.4498H1084.03C1083.88 63.5238 1083.13 59.6906 1081.8 56.0176L1081.83 56.0059L1081.27 54.6488L1080.72 53.293L1080.69 53.3045C1079.01 49.5986 1076.77 46.2201 1074 43.2295L1074.02 43.2078L1072.98 42.1719L1071.95 41.1361L1071.93 41.1576C1069.05 38.4898 1065.81 36.308 1062.26 34.6508L1062.28 34.6225L1060.93 34.0535L1059.58 33.484L1059.56 33.5127C1055.77 32.0801 1051.79 31.2795 1047.71 31.1252V31.0947H1046.24H1044.78V31.1252C1040.85 31.274 1037.02 32.0223 1033.34 33.3566L1033.33 33.3279L1031.97 33.8811L1030.62 34.4338L1030.63 34.4623C1026.92 36.141 1023.55 38.3863 1020.56 41.1578L1020.53 41.1361L1019.5 42.1719L1018.46 43.2078L1018.48 43.2293C1015.82 46.1078 1013.63 49.3473 1011.98 52.8904L1011.95 52.8785L1011.38 54.2275L1010.81 55.5779L1010.84 55.59C1009.41 59.3893 1008.61 63.3664 1008.45 67.4498H1008.42V68.9146V70.3795H1008.45C1008.6 74.3053 1009.35 78.1385 1010.68 81.8115L1010.65 81.8232L1011.21 83.1803L1011.76 84.5361L1011.79 84.5244C1013.47 88.2303 1015.71 91.6088 1018.48 94.5994L1018.46 94.6211L1019.5 95.657L1020.53 96.6928L1020.56 96.6713C1023.43 99.3391 1026.67 101.521 1030.22 103.178L1030.2 103.207L1031.55 103.774C1031.55 103.775 1031.55 103.775 1031.55 103.776L1032.9 104.345L1032.92 104.316C1036.71 105.749 1040.69 106.549 1044.78 106.704ZM1034.05 101.617L1039.14 89.5393L1040.83 85.5395C1041.72 85.8324 1042.64 86.0488 1043.58 86.1914C1043.58 86.192 1043.58 86.1924 1043.59 86.193C1043.72 86.2129 1043.85 86.2312 1043.98 86.2482C1044.01 86.2518 1044.03 86.2553 1044.06 86.2586C1044.18 86.273 1044.3 86.2867 1044.41 86.299C1044.46 86.3037 1044.5 86.3076 1044.55 86.3119C1044.62 86.3191 1044.7 86.3279 1044.78 86.3342V103.775C1041.08 103.623 1037.49 102.9 1034.05 101.617ZM1042.54 54.8438C1042.57 54.8355 1042.6 54.8266 1042.63 54.8186C1042.83 54.7678 1043.03 54.7225 1043.23 54.6799C1043.26 54.6725 1043.3 54.6639 1043.33 54.6568C1043.53 54.617 1043.73 54.5828 1043.92 54.551C1043.97 54.5443 1044.01 54.5361 1044.05 54.5297C1044.24 54.5008 1044.43 54.4777 1044.62 54.4564C1044.68 54.451 1044.73 54.4434 1044.78 54.4383C1044.96 54.4193 1045.15 54.4064 1045.34 54.3949C1045.4 54.3916 1045.45 54.3859 1045.51 54.3832C1045.75 54.3711 1045.99 54.3646 1046.24 54.3646C1046.49 54.3646 1046.74 54.3711 1046.99 54.3836C1047 54.3844 1047.02 54.3861 1047.03 54.3871C1052.7 54.6924 1057.51 58.2525 1059.63 63.2266C1059.64 63.2404 1059.64 63.2541 1059.65 63.2682C1059.73 63.4639 1059.81 63.6621 1059.88 63.8621C1059.89 63.8873 1059.9 63.9123 1059.91 63.9375C1059.98 64.1309 1060.05 64.3264 1060.11 64.5234C1060.12 64.5543 1060.13 64.585 1060.14 64.616C1060.2 64.8104 1060.26 65.0068 1060.31 65.2043C1060.32 65.2383 1060.33 65.2721 1060.34 65.3061C1060.39 65.501 1060.43 65.6982 1060.47 65.8963C1060.48 65.934 1060.49 65.9713 1060.5 66.009C1060.54 66.2021 1060.57 66.3973 1060.6 66.5932C1060.61 66.6369 1060.62 66.6805 1060.63 66.7244C1060.65 66.9133 1060.68 67.1039 1060.7 67.2951C1060.7 67.3467 1060.71 67.398 1060.72 67.4498C1060.74 67.6377 1060.75 67.8271 1060.76 68.017C1060.76 68.0719 1060.77 68.1262 1060.77 68.1812C1060.78 68.4242 1060.79 68.6686 1060.79 68.9145C1060.79 69.1645 1060.78 69.4129 1060.77 69.66C1060.77 69.6756 1060.77 69.691 1060.77 69.7066C1060.46 75.3693 1056.9 80.1813 1051.93 82.3031C1051.92 82.3102 1051.9 82.3176 1051.88 82.3244C1051.69 82.4059 1051.5 82.4824 1051.3 82.5557C1051.27 82.5662 1051.24 82.5775 1051.21 82.5877C1051.02 82.657 1050.83 82.7213 1050.64 82.7828C1050.6 82.7938 1050.57 82.8059 1050.54 82.8166C1050.34 82.8758 1050.15 82.9297 1049.96 82.9811C1049.92 82.9908 1049.88 83.0019 1049.85 83.0113C1049.65 83.0605 1049.46 83.1043 1049.27 83.1457C1049.22 83.1543 1049.18 83.1643 1049.14 83.1725C1048.95 83.2111 1048.76 83.2443 1048.57 83.2756C1048.52 83.283 1048.48 83.2922 1048.43 83.2992C1048.24 83.3275 1048.05 83.35 1047.87 83.3711C1047.81 83.3771 1047.76 83.3852 1047.7 83.3904C1047.52 83.4092 1047.33 83.4217 1047.14 83.4332C1047.09 83.4367 1047.03 83.4426 1046.97 83.4453C1046.73 83.4574 1046.49 83.4639 1046.24 83.4639C1045.99 83.4639 1045.74 83.4574 1045.49 83.4449C1045.48 83.4441 1045.46 83.4422 1045.45 83.4412C1039.78 83.1346 1034.97 79.575 1032.85 74.602C1032.84 74.5881 1032.84 74.5744 1032.83 74.5604C1032.75 74.365 1032.67 74.167 1032.6 73.9674C1032.59 73.9416 1032.58 73.9162 1032.57 73.8904C1032.5 73.6982 1032.43 73.5035 1032.37 73.3076C1032.36 73.2754 1032.35 73.2436 1032.34 73.2113C1032.28 73.0184 1032.22 72.8232 1032.17 72.6269C1032.16 72.5916 1032.15 72.5566 1032.14 72.5213C1032.09 72.3275 1032.05 72.1316 1032.01 71.9348C1032 71.8959 1031.99 71.8574 1031.98 71.8184C1031.94 71.6262 1031.91 71.4322 1031.88 71.2375C1031.87 71.1926 1031.86 71.148 1031.86 71.1031C1031.83 70.9154 1031.8 70.726 1031.78 70.5361C1031.78 70.4832 1031.77 70.4307 1031.76 70.3777C1031.75 70.1914 1031.73 70.0033 1031.72 69.8148C1031.72 69.7586 1031.71 69.7027 1031.71 69.6465C1031.7 69.4037 1031.69 69.1594 1031.69 68.9137C1031.69 68.6637 1031.7 68.415 1031.71 68.1682C1031.71 68.1533 1031.71 68.1387 1031.71 68.1238C1032.02 62.4555 1035.58 57.6389 1040.56 55.5195C1040.57 55.515 1040.58 55.5102 1040.59 55.5057C1040.79 55.4215 1040.99 55.3426 1041.19 55.2672C1041.22 55.259 1041.24 55.2502 1041.26 55.2422C1041.46 55.1705 1041.66 55.1037 1041.86 55.0402C1041.88 55.0314 1041.91 55.0219 1041.94 55.0131C1042.14 54.9527 1042.34 54.8967 1042.54 54.8438ZM1047.71 103.775V86.3338C1047.78 86.3277 1047.85 86.3197 1047.92 86.3127C1047.97 86.308 1048.02 86.3037 1048.07 86.2986C1048.18 86.2875 1048.28 86.2748 1048.39 86.2615C1048.43 86.2568 1048.47 86.2521 1048.51 86.2471C1048.62 86.232 1048.74 86.2158 1048.85 86.1984C1048.88 86.1941 1048.91 86.19 1048.94 86.1855C1049.06 86.1664 1049.19 86.1457 1049.31 86.1238C1049.33 86.1209 1049.34 86.118 1049.36 86.115C1050.07 85.9873 1050.77 85.8172 1051.45 85.602L1054.68 93.5145L1058.03 101.759C1054.71 102.953 1051.25 103.628 1047.71 103.775ZM1060.75 100.654L1054.17 84.4969C1055.37 83.8857 1056.49 83.1402 1057.52 82.2674L1069.85 94.6C1067.14 97.0961 1064.09 99.1262 1060.75 100.654ZM1077.8 83.8014C1076.3 86.9955 1074.33 89.9213 1071.93 92.5283L1065.76 86.3621L1059.59 80.1959C1060.42 79.2188 1061.13 78.1598 1061.73 77.0283L1069.86 80.4525L1077.8 83.8014ZM1078.94 81.1018L1070.52 77.5531L1062.87 74.3285C1063.16 73.4293 1063.38 72.51 1063.52 71.5754C1063.52 71.574 1063.52 71.5727 1063.52 71.5713C1063.54 71.4393 1063.56 71.307 1063.57 71.1744C1063.58 71.1479 1063.58 71.1213 1063.58 71.0945C1063.6 70.977 1063.61 70.8592 1063.62 70.741C1063.63 70.6969 1063.63 70.6527 1063.64 70.6086C1063.64 70.5322 1063.65 70.4561 1063.66 70.3795H1081.1C1080.95 74.0699 1080.23 77.665 1078.94 81.1018ZM1081.1 67.4496H1063.66C1063.65 67.376 1063.65 67.3027 1063.64 67.2293C1063.63 67.1822 1063.63 67.135 1063.62 67.0881C1063.61 66.9779 1063.6 66.868 1063.59 66.7582C1063.58 66.7221 1063.58 66.6861 1063.57 66.65C1063.56 66.5314 1063.54 66.4129 1063.52 66.2947C1063.52 66.2703 1063.52 66.2459 1063.51 66.2215C1063.49 66.0938 1063.47 65.9664 1063.45 65.8393C1063.45 65.8275 1063.44 65.816 1063.44 65.8043C1063.31 65.0934 1063.14 64.3914 1062.93 63.7008L1074.81 58.8621L1079.09 57.1217C1080.28 60.4422 1080.95 63.9045 1081.1 67.4496ZM1061.82 60.9879C1061.21 59.7857 1060.47 58.6641 1059.59 57.633L1071.93 45.3004C1074.42 48.0111 1076.45 51.0652 1077.98 54.4088L1061.82 60.9879ZM1069.85 43.2289L1057.52 55.5615C1056.54 54.734 1055.49 54.0205 1054.35 53.4277L1058.62 43.2982L1061.13 37.3502C1064.32 38.857 1067.25 40.8279 1069.85 43.2289ZM1058.43 36.2119L1054.2 46.2461L1051.65 52.2896C1050.76 51.9967 1049.84 51.7801 1048.9 51.6375C1048.9 51.6371 1048.9 51.6369 1048.9 51.6365C1048.76 51.6164 1048.63 51.598 1048.5 51.5811C1048.47 51.5775 1048.45 51.5742 1048.42 51.5709C1048.3 51.5562 1048.18 51.5426 1048.07 51.5305C1048.02 51.526 1047.98 51.5219 1047.93 51.5176C1047.86 51.5104 1047.78 51.5016 1047.71 51.4953V34.0543C1051.4 34.2053 1054.99 34.9287 1058.43 36.2119ZM1044.78 34.0543V51.4953C1044.7 51.5014 1044.63 51.5096 1044.55 51.5168C1044.51 51.5213 1044.46 51.5254 1044.42 51.5301C1044.3 51.5416 1044.19 51.5549 1044.08 51.5686C1044.05 51.5727 1044.01 51.5768 1043.98 51.5811C1043.86 51.5969 1043.74 51.6139 1043.61 51.6322C1043.59 51.6353 1043.57 51.6385 1043.55 51.6416C1043.42 51.6619 1043.29 51.6838 1043.16 51.707C1043.15 51.7082 1043.15 51.7096 1043.14 51.7107C1042.42 51.8387 1041.72 52.0098 1041.03 52.2266L1037.81 44.3141L1034.45 36.0695C1037.77 34.8756 1041.23 34.2002 1044.78 34.0543ZM1031.73 37.175L1038.31 53.3318C1037.11 53.943 1035.99 54.6885 1034.96 55.5615L1022.63 43.2289C1025.34 40.7328 1028.39 38.7027 1031.73 37.175ZM1014.68 54.0273C1016.18 50.8334 1018.15 47.9074 1020.55 45.3004L1032.89 57.633C1032.06 58.61 1031.35 59.6689 1030.75 60.8006L1026.89 59.1736L1014.68 54.0273ZM1013.54 56.727L1025.26 61.6633L1029.62 63.5002C1029.32 64.3998 1029.11 65.3197 1028.96 66.2547C1028.96 66.2555 1028.96 66.2561 1028.96 66.2568C1028.94 66.3893 1028.92 66.5219 1028.91 66.6549C1028.9 66.6812 1028.9 66.7076 1028.9 66.7338C1028.88 66.8518 1028.87 66.9697 1028.86 67.0881C1028.85 67.1318 1028.85 67.176 1028.84 67.2199C1028.84 67.2965 1028.83 67.3729 1028.82 67.4494H1011.38C1011.53 63.759 1012.25 60.1639 1013.54 56.727ZM1028.82 70.3793C1028.83 70.4525 1028.84 70.5254 1028.84 70.5986C1028.85 70.6463 1028.85 70.6939 1028.86 70.7414C1028.87 70.8508 1028.88 70.96 1028.89 71.0689C1028.9 71.1061 1028.9 71.1432 1028.91 71.1801C1028.92 71.2977 1028.94 71.415 1028.96 71.532C1028.96 71.5578 1028.96 71.5834 1028.97 71.6092C1028.99 71.7355 1029.01 71.8615 1029.03 71.9873C1029.03 72.0006 1029.04 72.0139 1029.04 72.0273C1029.17 72.7373 1029.34 73.4385 1029.55 74.1279L1013.4 80.7068C1012.2 77.3867 1011.53 73.9246 1011.38 70.3795H1028.82V70.3793ZM1020.55 92.5281C1018.06 89.8174 1016.03 86.7633 1014.5 83.4197L1024.05 79.5324L1030.66 76.841C1031.27 78.0432 1032.01 79.1648 1032.89 80.1957L1031.67 81.4117L1020.55 92.5281ZM1034.96 82.2674C1035.94 83.0947 1037 83.8082 1038.13 84.401L1031.35 100.479C1028.16 98.9717 1025.23 97.0006 1022.63 94.5998L1034.96 82.2674Z"/>
</mask>
<path d="M1044.78 106.704V106.734H1046.24H1047.71V106.704C1051.63 106.555 1055.46 105.807 1059.14 104.472L1059.15 104.501L1060.5 103.949C1060.5 103.949 1060.51 103.948 1060.51 103.948L1061.86 103.395L1061.85 103.367C1065.56 101.688 1068.93 99.4428 1071.93 96.6711L1071.95 96.6928L1072.98 95.657C1072.99 95.6543 1072.99 95.6516 1072.99 95.649L1074.02 94.6213L1074 94.5998C1076.66 91.7213 1078.85 88.4818 1080.5 84.9387L1080.53 84.9506L1081.1 83.6082C1081.1 83.6061 1081.1 83.6037 1081.1 83.6016L1081.67 82.2512L1081.64 82.2391C1083.07 78.44 1083.88 74.4631 1084.03 70.3795H1084.06V68.9146V67.4498H1084.03C1083.88 63.5238 1083.13 59.6906 1081.8 56.0176L1081.83 56.0059L1081.27 54.6488L1080.72 53.293L1080.69 53.3045C1079.01 49.5986 1076.77 46.2201 1074 43.2295L1074.02 43.2078L1072.98 42.1719L1071.95 41.1361L1071.93 41.1576C1069.05 38.4898 1065.81 36.308 1062.26 34.6508L1062.28 34.6225L1060.93 34.0535L1059.58 33.484L1059.56 33.5127C1055.77 32.0801 1051.79 31.2795 1047.71 31.1252V31.0947H1046.24H1044.78V31.1252C1040.85 31.274 1037.02 32.0223 1033.34 33.3566L1033.33 33.3279L1031.97 33.8811L1030.62 34.4338L1030.63 34.4623C1026.92 36.141 1023.55 38.3863 1020.56 41.1578L1020.53 41.1361L1019.5 42.1719L1018.46 43.2078L1018.48 43.2293C1015.82 46.1078 1013.63 49.3473 1011.98 52.8904L1011.95 52.8785L1011.38 54.2275L1010.81 55.5779L1010.84 55.59C1009.41 59.3893 1008.61 63.3664 1008.45 67.4498H1008.42V68.9146V70.3795H1008.45C1008.6 74.3053 1009.35 78.1385 1010.68 81.8115L1010.65 81.8232L1011.21 83.1803L1011.76 84.5361L1011.79 84.5244C1013.47 88.2303 1015.71 91.6088 1018.48 94.5994L1018.46 94.6211L1019.5 95.657L1020.53 96.6928L1020.56 96.6713C1023.43 99.3391 1026.67 101.521 1030.22 103.178L1030.2 103.207L1031.55 103.774C1031.55 103.775 1031.55 103.775 1031.55 103.776L1032.9 104.345L1032.92 104.316C1036.71 105.749 1040.69 106.549 1044.78 106.704ZM1034.05 101.617L1039.14 89.5393L1040.83 85.5395C1041.72 85.8324 1042.64 86.0488 1043.58 86.1914C1043.58 86.192 1043.58 86.1924 1043.59 86.193C1043.72 86.2129 1043.85 86.2312 1043.98 86.2482C1044.01 86.2518 1044.03 86.2553 1044.06 86.2586C1044.18 86.273 1044.3 86.2867 1044.41 86.299C1044.46 86.3037 1044.5 86.3076 1044.55 86.3119C1044.62 86.3191 1044.7 86.3279 1044.78 86.3342V103.775C1041.08 103.623 1037.49 102.9 1034.05 101.617ZM1042.54 54.8438C1042.57 54.8355 1042.6 54.8266 1042.63 54.8186C1042.83 54.7678 1043.03 54.7225 1043.23 54.6799C1043.26 54.6725 1043.3 54.6639 1043.33 54.6568C1043.53 54.617 1043.73 54.5828 1043.92 54.551C1043.97 54.5443 1044.01 54.5361 1044.05 54.5297C1044.24 54.5008 1044.43 54.4777 1044.62 54.4564C1044.68 54.451 1044.73 54.4434 1044.78 54.4383C1044.96 54.4193 1045.15 54.4064 1045.34 54.3949C1045.4 54.3916 1045.45 54.3859 1045.51 54.3832C1045.75 54.3711 1045.99 54.3646 1046.24 54.3646C1046.49 54.3646 1046.74 54.3711 1046.99 54.3836C1047 54.3844 1047.02 54.3861 1047.03 54.3871C1052.7 54.6924 1057.51 58.2525 1059.63 63.2266C1059.64 63.2404 1059.64 63.2541 1059.65 63.2682C1059.73 63.4639 1059.81 63.6621 1059.88 63.8621C1059.89 63.8873 1059.9 63.9123 1059.91 63.9375C1059.98 64.1309 1060.05 64.3264 1060.11 64.5234C1060.12 64.5543 1060.13 64.585 1060.14 64.616C1060.2 64.8104 1060.26 65.0068 1060.31 65.2043C1060.32 65.2383 1060.33 65.2721 1060.34 65.3061C1060.39 65.501 1060.43 65.6982 1060.47 65.8963C1060.48 65.934 1060.49 65.9713 1060.5 66.009C1060.54 66.2021 1060.57 66.3973 1060.6 66.5932C1060.61 66.6369 1060.62 66.6805 1060.63 66.7244C1060.65 66.9133 1060.68 67.1039 1060.7 67.2951C1060.7 67.3467 1060.71 67.398 1060.72 67.4498C1060.74 67.6377 1060.75 67.8271 1060.76 68.017C1060.76 68.0719 1060.77 68.1262 1060.77 68.1812C1060.78 68.4242 1060.79 68.6686 1060.79 68.9145C1060.79 69.1645 1060.78 69.4129 1060.77 69.66C1060.77 69.6756 1060.77 69.691 1060.77 69.7066C1060.46 75.3693 1056.9 80.1813 1051.93 82.3031C1051.92 82.3102 1051.9 82.3176 1051.88 82.3244C1051.69 82.4059 1051.5 82.4824 1051.3 82.5557C1051.27 82.5662 1051.24 82.5775 1051.21 82.5877C1051.02 82.657 1050.83 82.7213 1050.64 82.7828C1050.6 82.7938 1050.57 82.8059 1050.54 82.8166C1050.34 82.8758 1050.15 82.9297 1049.96 82.9811C1049.92 82.9908 1049.88 83.0019 1049.85 83.0113C1049.65 83.0605 1049.46 83.1043 1049.27 83.1457C1049.22 83.1543 1049.18 83.1643 1049.14 83.1725C1048.95 83.2111 1048.76 83.2443 1048.57 83.2756C1048.52 83.283 1048.48 83.2922 1048.43 83.2992C1048.24 83.3275 1048.05 83.35 1047.87 83.3711C1047.81 83.3771 1047.76 83.3852 1047.7 83.3904C1047.52 83.4092 1047.33 83.4217 1047.14 83.4332C1047.09 83.4367 1047.03 83.4426 1046.97 83.4453C1046.73 83.4574 1046.49 83.4639 1046.24 83.4639C1045.99 83.4639 1045.74 83.4574 1045.49 83.4449C1045.48 83.4441 1045.46 83.4422 1045.45 83.4412C1039.78 83.1346 1034.97 79.575 1032.85 74.602C1032.84 74.5881 1032.84 74.5744 1032.83 74.5604C1032.75 74.365 1032.67 74.167 1032.6 73.9674C1032.59 73.9416 1032.58 73.9162 1032.57 73.8904C1032.5 73.6982 1032.43 73.5035 1032.37 73.3076C1032.36 73.2754 1032.35 73.2436 1032.34 73.2113C1032.28 73.0184 1032.22 72.8232 1032.17 72.6269C1032.16 72.5916 1032.15 72.5566 1032.14 72.5213C1032.09 72.3275 1032.05 72.1316 1032.01 71.9348C1032 71.8959 1031.99 71.8574 1031.98 71.8184C1031.94 71.6262 1031.91 71.4322 1031.88 71.2375C1031.87 71.1926 1031.86 71.148 1031.86 71.1031C1031.83 70.9154 1031.8 70.726 1031.78 70.5361C1031.78 70.4832 1031.77 70.4307 1031.76 70.3777C1031.75 70.1914 1031.73 70.0033 1031.72 69.8148C1031.72 69.7586 1031.71 69.7027 1031.71 69.6465C1031.7 69.4037 1031.69 69.1594 1031.69 68.9137C1031.69 68.6637 1031.7 68.415 1031.71 68.1682C1031.71 68.1533 1031.71 68.1387 1031.71 68.1238C1032.02 62.4555 1035.58 57.6389 1040.56 55.5195C1040.57 55.515 1040.58 55.5102 1040.59 55.5057C1040.79 55.4215 1040.99 55.3426 1041.19 55.2672C1041.22 55.259 1041.24 55.2502 1041.26 55.2422C1041.46 55.1705 1041.66 55.1037 1041.86 55.0402C1041.88 55.0314 1041.91 55.0219 1041.94 55.0131C1042.14 54.9527 1042.34 54.8967 1042.54 54.8438ZM1047.71 103.775V86.3338C1047.78 86.3277 1047.85 86.3197 1047.92 86.3127C1047.97 86.308 1048.02 86.3037 1048.07 86.2986C1048.18 86.2875 1048.28 86.2748 1048.39 86.2615C1048.43 86.2568 1048.47 86.2521 1048.51 86.2471C1048.62 86.232 1048.74 86.2158 1048.85 86.1984C1048.88 86.1941 1048.91 86.19 1048.94 86.1855C1049.06 86.1664 1049.19 86.1457 1049.31 86.1238C1049.33 86.1209 1049.34 86.118 1049.36 86.115C1050.07 85.9873 1050.77 85.8172 1051.45 85.602L1054.68 93.5145L1058.03 101.759C1054.71 102.953 1051.25 103.628 1047.71 103.775ZM1060.75 100.654L1054.17 84.4969C1055.37 83.8857 1056.49 83.1402 1057.52 82.2674L1069.85 94.6C1067.14 97.0961 1064.09 99.1262 1060.75 100.654ZM1077.8 83.8014C1076.3 86.9955 1074.33 89.9213 1071.93 92.5283L1065.76 86.3621L1059.59 80.1959C1060.42 79.2188 1061.13 78.1598 1061.73 77.0283L1069.86 80.4525L1077.8 83.8014ZM1078.94 81.1018L1070.52 77.5531L1062.87 74.3285C1063.16 73.4293 1063.38 72.51 1063.52 71.5754C1063.52 71.574 1063.52 71.5727 1063.52 71.5713C1063.54 71.4393 1063.56 71.307 1063.57 71.1744C1063.58 71.1479 1063.58 71.1213 1063.58 71.0945C1063.6 70.977 1063.61 70.8592 1063.62 70.741C1063.63 70.6969 1063.63 70.6527 1063.64 70.6086C1063.64 70.5322 1063.65 70.4561 1063.66 70.3795H1081.1C1080.95 74.0699 1080.23 77.665 1078.94 81.1018ZM1081.1 67.4496H1063.66C1063.65 67.376 1063.65 67.3027 1063.64 67.2293C1063.63 67.1822 1063.63 67.135 1063.62 67.0881C1063.61 66.9779 1063.6 66.868 1063.59 66.7582C1063.58 66.7221 1063.58 66.6861 1063.57 66.65C1063.56 66.5314 1063.54 66.4129 1063.52 66.2947C1063.52 66.2703 1063.52 66.2459 1063.51 66.2215C1063.49 66.0938 1063.47 65.9664 1063.45 65.8393C1063.45 65.8275 1063.44 65.816 1063.44 65.8043C1063.31 65.0934 1063.14 64.3914 1062.93 63.7008L1074.81 58.8621L1079.09 57.1217C1080.28 60.4422 1080.95 63.9045 1081.1 67.4496ZM1061.82 60.9879C1061.21 59.7857 1060.47 58.6641 1059.59 57.633L1071.93 45.3004C1074.42 48.0111 1076.45 51.0652 1077.98 54.4088L1061.82 60.9879ZM1069.85 43.2289L1057.52 55.5615C1056.54 54.734 1055.49 54.0205 1054.35 53.4277L1058.62 43.2982L1061.13 37.3502C1064.32 38.857 1067.25 40.8279 1069.85 43.2289ZM1058.43 36.2119L1054.2 46.2461L1051.65 52.2896C1050.76 51.9967 1049.84 51.7801 1048.9 51.6375C1048.9 51.6371 1048.9 51.6369 1048.9 51.6365C1048.76 51.6164 1048.63 51.598 1048.5 51.5811C1048.47 51.5775 1048.45 51.5742 1048.42 51.5709C1048.3 51.5562 1048.18 51.5426 1048.07 51.5305C1048.02 51.526 1047.98 51.5219 1047.93 51.5176C1047.86 51.5104 1047.78 51.5016 1047.71 51.4953V34.0543C1051.4 34.2053 1054.99 34.9287 1058.43 36.2119ZM1044.78 34.0543V51.4953C1044.7 51.5014 1044.63 51.5096 1044.55 51.5168C1044.51 51.5213 1044.46 51.5254 1044.42 51.5301C1044.3 51.5416 1044.19 51.5549 1044.08 51.5686C1044.05 51.5727 1044.01 51.5768 1043.98 51.5811C1043.86 51.5969 1043.74 51.6139 1043.61 51.6322C1043.59 51.6353 1043.57 51.6385 1043.55 51.6416C1043.42 51.6619 1043.29 51.6838 1043.16 51.707C1043.15 51.7082 1043.15 51.7096 1043.14 51.7107C1042.42 51.8387 1041.72 52.0098 1041.03 52.2266L1037.81 44.3141L1034.45 36.0695C1037.77 34.8756 1041.23 34.2002 1044.78 34.0543ZM1031.73 37.175L1038.31 53.3318C1037.11 53.943 1035.99 54.6885 1034.96 55.5615L1022.63 43.2289C1025.34 40.7328 1028.39 38.7027 1031.73 37.175ZM1014.68 54.0273C1016.18 50.8334 1018.15 47.9074 1020.55 45.3004L1032.89 57.633C1032.06 58.61 1031.35 59.6689 1030.75 60.8006L1026.89 59.1736L1014.68 54.0273ZM1013.54 56.727L1025.26 61.6633L1029.62 63.5002C1029.32 64.3998 1029.11 65.3197 1028.96 66.2547C1028.96 66.2555 1028.96 66.2561 1028.96 66.2568C1028.94 66.3893 1028.92 66.5219 1028.91 66.6549C1028.9 66.6812 1028.9 66.7076 1028.9 66.7338C1028.88 66.8518 1028.87 66.9697 1028.86 67.0881C1028.85 67.1318 1028.85 67.176 1028.84 67.2199C1028.84 67.2965 1028.83 67.3729 1028.82 67.4494H1011.38C1011.53 63.759 1012.25 60.1639 1013.54 56.727ZM1028.82 70.3793C1028.83 70.4525 1028.84 70.5254 1028.84 70.5986C1028.85 70.6463 1028.85 70.6939 1028.86 70.7414C1028.87 70.8508 1028.88 70.96 1028.89 71.0689C1028.9 71.1061 1028.9 71.1432 1028.91 71.1801C1028.92 71.2977 1028.94 71.415 1028.96 71.532C1028.96 71.5578 1028.96 71.5834 1028.97 71.6092C1028.99 71.7355 1029.01 71.8615 1029.03 71.9873C1029.03 72.0006 1029.04 72.0139 1029.04 72.0273C1029.17 72.7373 1029.34 73.4385 1029.55 74.1279L1013.4 80.7068C1012.2 77.3867 1011.53 73.9246 1011.38 70.3795H1028.82V70.3793ZM1020.55 92.5281C1018.06 89.8174 1016.03 86.7633 1014.5 83.4197L1024.05 79.5324L1030.66 76.841C1031.27 78.0432 1032.01 79.1648 1032.89 80.1957L1031.67 81.4117L1020.55 92.5281ZM1034.96 82.2674C1035.94 83.0947 1037 83.8082 1038.13 84.401L1031.35 100.479C1028.16 98.9717 1025.23 97.0006 1022.63 94.5998L1034.96 82.2674Z" fill="black" stroke="black" stroke-width="2" mask="url(#path-23-inside-1)"/>
<path d="M1046.24 81.7541C1039.16 81.7541 1033.4 75.9937 1033.4 68.9144C1033.4 61.8351 1039.16 56.0746 1046.24 56.0746C1053.32 56.0746 1059.08 61.8351 1059.08 68.9144C1059.08 75.9937 1053.32 81.7541 1046.24 81.7541ZM1046.24 79.8244C1052.26 79.8244 1057.15 74.9306 1057.15 68.9144C1057.15 62.8982 1052.26 58.0043 1046.24 58.0043C1040.22 58.0043 1035.33 62.898 1035.33 68.9144C1035.33 74.9306 1040.22 79.8244 1046.24 79.8244Z" fill="black" stroke="black"/>
<path d="M1059.08 108.644L1059.21 109.154L1060.44 114.007L1060.6 114.63H1059.96H1032.53H1031.88L1032.04 114.007L1033.27 109.154L1033.4 108.644L1033.91 108.799C1033.92 108.803 1033.93 108.806 1033.95 108.811L1033.95 108.811C1033.96 108.816 1033.98 108.821 1034 108.828C1034.08 108.85 1034.15 108.873 1034.23 108.895C1034.25 108.903 1034.28 108.912 1034.31 108.92C1034.48 108.969 1034.64 109.018 1034.8 109.064L1034.8 109.064C1034.86 109.081 1034.92 109.098 1034.98 109.115C1035.03 109.129 1035.08 109.142 1035.13 109.156L1035.13 109.156C1035.29 109.2 1035.45 109.243 1035.61 109.285C1035.72 109.314 1035.84 109.344 1035.95 109.372L1035.95 109.372C1036.11 109.413 1036.27 109.452 1036.43 109.49L1036.31 109.976L1036.43 109.49C1036.54 109.518 1036.65 109.545 1036.76 109.571L1036.76 109.571C1036.93 109.609 1037.09 109.645 1037.25 109.681C1037.25 109.681 1037.25 109.681 1037.25 109.681L1037.15 110.17L1037.2 110.181C1037.29 110.201 1037.38 110.222 1037.48 110.241L1059.08 108.644ZM1059.08 108.644L1058.57 108.799C1058.56 108.805 1058.54 108.809 1058.53 108.814C1058.51 108.817 1058.5 108.821 1058.48 108.826L1058.48 108.827C1058.4 108.851 1058.32 108.874 1058.24 108.898C1058.22 108.905 1058.19 108.913 1058.17 108.92L1058.17 108.92C1058 108.969 1057.84 109.017 1057.68 109.064C1057.57 109.095 1057.46 109.125 1057.35 109.156M1059.08 108.644L1058.24 109.42M1056.17 109.976C1056.33 109.938 1056.49 109.898 1056.65 109.857C1056.77 109.828 1056.88 109.798 1057 109.768M1056.17 109.976L1056.05 109.49C1056.05 109.49 1056.05 109.49 1056.05 109.49M1056.17 109.976L1056.05 109.49M1056.17 109.976C1056.06 110.004 1055.94 110.031 1055.83 110.058C1055.66 110.096 1055.5 110.133 1055.33 110.17C1055.3 110.176 1055.28 110.182 1055.25 110.188C1055.17 110.206 1055.09 110.224 1055 110.241M1056.05 109.49C1056.21 109.452 1056.37 109.413 1056.53 109.372L1056.53 109.372C1056.64 109.344 1056.76 109.314 1056.87 109.285M1056.05 109.49C1055.98 109.508 1055.91 109.526 1055.83 109.543C1055.79 109.553 1055.76 109.562 1055.72 109.571L1055.72 109.571C1055.55 109.609 1055.39 109.645 1055.23 109.681L1055.23 109.681C1055.17 109.694 1055.11 109.707 1055.05 109.719C1055 109.73 1054.95 109.741 1054.9 109.752L1055 110.241M1056.87 109.285C1056.87 109.285 1056.87 109.285 1056.87 109.285L1057 109.768M1056.87 109.285L1057 109.768M1056.87 109.285C1057.03 109.243 1057.19 109.2 1057.35 109.156M1057 109.768C1057.16 109.726 1057.32 109.682 1057.48 109.638M1057.48 109.638L1057.35 109.157C1057.35 109.157 1057.35 109.157 1057.35 109.156M1057.48 109.638C1057.5 109.631 1057.53 109.624 1057.55 109.617C1057.64 109.593 1057.73 109.569 1057.82 109.545C1057.96 109.504 1058.1 109.462 1058.24 109.42M1057.48 109.638L1057.35 109.156C1057.35 109.156 1057.35 109.156 1057.35 109.156M1058.24 109.42L1058.24 109.4L1058.31 109.382L1058.63 109.301L1058.72 109.277L1058.87 109.755C1058.86 109.757 1058.85 109.76 1058.85 109.762L1059.83 113.63H1059.96V114.13L1059.47 114.253L1059.44 114.13H1033.04L1033.01 114.253L1032.53 114.13V113.63H1032.65L1058.24 109.42ZM1055 110.241C1054.82 110.28 1054.64 110.315 1054.46 110.351C1054.43 110.358 1054.4 110.365 1054.36 110.372C1054.3 110.384 1054.24 110.396 1054.18 110.408C1053.92 110.456 1053.67 110.502 1053.42 110.546M1055 110.241L1054.9 109.752C1054.72 109.79 1054.55 109.825 1054.37 109.861C1054.33 109.868 1054.29 109.875 1054.26 109.882C1054.2 109.894 1054.14 109.906 1054.08 109.917C1053.83 109.964 1053.58 110.01 1053.33 110.053M1053.42 110.546L1053.33 110.053C1053.33 110.053 1053.33 110.053 1053.33 110.053M1053.42 110.546L1053.33 110.053M1053.42 110.546L1043.38 110.556M1053.33 110.053C1053.32 110.055 1053.3 110.058 1053.29 110.06L1053.26 110.065C1053.26 110.065 1053.26 110.065 1053.26 110.065C1052.99 110.111 1052.72 110.154 1052.44 110.195C1052.39 110.203 1052.34 110.21 1052.28 110.218C1052.25 110.223 1052.21 110.228 1052.17 110.234L1052.17 110.234C1051.99 110.26 1051.8 110.286 1051.62 110.31C1051.51 110.324 1051.41 110.336 1051.29 110.349C1051.12 110.37 1050.95 110.39 1050.79 110.408C1050.67 110.42 1050.56 110.432 1050.44 110.443L1050.44 110.443C1050.28 110.46 1050.11 110.476 1049.95 110.49C1049.95 110.49 1049.95 110.49 1049.95 110.49L1049.99 110.988M1049.99 110.988C1049.88 110.999 1049.76 111.009 1049.64 111.018C1049.47 111.031 1049.31 111.044 1049.14 111.055M1049.99 110.988C1050.16 110.974 1050.33 110.958 1050.49 110.941M1049.99 110.988L1050.49 110.941M1049.14 111.055L1049.11 110.556C1049.11 110.556 1049.11 110.556 1049.11 110.556L1049.14 111.055ZM1049.14 111.055L1049.08 111.059C1048.99 111.065 1048.89 111.072 1048.79 111.077C1048.62 111.088 1048.44 111.096 1048.27 111.105C1048.16 111.11 1048.05 111.116 1047.94 111.12C1047.75 111.128 1047.56 111.133 1047.37 111.138C1047.34 111.139 1047.3 111.14 1047.27 111.141C1047.21 111.143 1047.15 111.145 1047.09 111.146C1046.81 111.151 1046.52 111.155 1046.24 111.155C1045.96 111.155 1045.67 111.152 1045.39 111.146L1045.4 110.646C1045.4 110.646 1045.4 110.646 1045.4 110.646C1045.31 110.644 1045.22 110.641 1045.12 110.638C1044.93 110.633 1044.75 110.628 1044.56 110.62M1044.56 110.62C1044.56 110.62 1044.56 110.621 1044.56 110.621L1044.54 111.12L1044.56 110.62ZM1044.56 110.62C1044.48 110.617 1044.39 110.613 1044.31 110.609L1044.23 110.605L1044.23 110.605C1044.06 110.597 1043.89 110.589 1043.72 110.578L1043.72 110.578C1043.62 110.573 1043.52 110.566 1043.42 110.559L1043.38 110.556M1043.38 110.556L1043.38 110.556C1043.21 110.545 1043.04 110.533 1042.88 110.52M1043.38 110.556L1042.49 110.988L1042.53 110.49C1042.65 110.5 1042.76 110.51 1042.88 110.52M1043.38 110.556L1043.34 111.055M1043.38 110.556L1043.34 111.055M1042.88 110.52C1042.88 110.52 1042.88 110.52 1042.88 110.52L1042.84 111.018L1042.88 110.52ZM1043.34 111.055L1043.39 111.058C1043.49 111.065 1043.59 111.072 1043.69 111.077L1043.34 111.055ZM1050.49 110.941C1050.61 110.93 1050.72 110.918 1050.84 110.905C1051.01 110.887 1051.18 110.866 1051.35 110.846C1051.39 110.842 1051.42 110.838 1051.45 110.834C1051.53 110.825 1051.61 110.816 1051.68 110.806C1051.87 110.782 1052.06 110.756 1052.24 110.729C1052.28 110.724 1052.31 110.719 1052.35 110.714C1052.41 110.706 1052.46 110.698 1052.52 110.69L1050.49 110.941ZM1059.43 106.483C1075.36 100.892 1086.05 85.795 1086.05 68.9145C1086.05 46.9624 1068.19 29.1037 1046.24 29.1037C1024.29 29.1037 1006.43 46.9624 1006.43 68.9145L1059.43 106.483ZM1059.43 106.483C1059.17 106.576 1058.9 106.666 1058.64 106.754C1054.64 108.062 1050.48 108.725 1046.24 108.725C1042 108.725 1037.84 108.062 1033.84 106.754C1033.58 106.666 1033.31 106.576 1033.05 106.483C1033.05 106.483 1033.05 106.483 1033.05 106.483L1033.21 106.012L1059.43 106.483ZM1031.47 108.432L1031.58 108.003L1031.16 107.843C1015.16 101.646 1004.5 86.1688 1004.5 68.9145C1004.5 57.764 1008.84 47.2838 1016.73 39.3995L1016.37 39.0459L1016.73 39.3995C1024.61 31.5151 1035.09 27.174 1046.24 27.174C1057.39 27.174 1067.87 31.5151 1075.76 39.3995C1083.64 47.2838 1087.98 57.764 1087.98 68.9145C1087.98 86.1688 1077.32 101.646 1061.32 107.843L1060.9 108.003L1061.01 108.432L1063.75 119.193L1063.85 119.57H1064.23H1072.4V121.5H1064.98H1027.5H1020.08V119.57H1028.25H1028.64L1028.73 119.193L1031.47 108.432ZM1034.24 109.42L1034.24 109.4L1034.17 109.382L1033.85 109.301L1034.24 109.42ZM1040.86 110.31C1040.68 110.286 1040.5 110.26 1040.31 110.234C1040.21 110.219 1040.13 110.209 1040.04 110.195C1039.76 110.154 1039.49 110.111 1039.22 110.065L1040.86 110.31ZM1039.22 110.065L1039.19 110.06C1039.18 110.058 1039.16 110.055 1039.15 110.053C1039.15 110.053 1039.15 110.053 1039.15 110.053L1039.22 110.065ZM1041.64 110.905L1041.69 110.408C1041.69 110.408 1041.69 110.408 1041.69 110.408L1041.64 110.905ZM1030.78 118.947L1030.63 119.57H1031.27H1061.21H1061.85L1061.7 118.947L1061.19 116.937L1061.09 116.56H1060.7H1031.78H1031.39L1031.3 116.937L1030.78 118.947Z" fill="black" stroke="black"/>
<path d="M1040.78 23.9648H1051.87L1046.33 40.6848L1040.78 23.9648Z" fill="#FEDA44" stroke="black"/>
<path d="M1045.9 39.3909L1040.78 23.9648H1045.9V39.3909Z" fill="#EEBF00" stroke="black"/>
<path d="M1042.12 24.4297H1041.42L1041.64 25.0872L1045.85 37.7784L1046.33 39.2086L1046.8 37.7784L1051.01 25.0872L1051.23 24.4297H1050.54H1042.12ZM1053.9 22.5L1046.33 45.3361L1038.75 22.5H1053.9Z" fill="black" stroke="black"/>
</g>
<path d="M87.864 21.632V32.288H60.504V122H47.4V32.288H19.896V21.632H87.864ZM143.162 41.648C149.114 41.648 154.49 42.944 159.29 45.536C164.09 48.032 167.834 51.824 170.522 56.912C173.306 62 174.698 68.192 174.698 75.488V122H161.738V77.36C161.738 69.488 159.77 63.488 155.834 59.36C151.898 55.136 146.522 53.024 139.706 53.024C132.794 53.024 127.274 55.184 123.146 59.504C119.114 63.824 117.098 70.112 117.098 78.368V122H103.994V15.44H117.098V54.32C119.69 50.288 123.242 47.168 127.754 44.96C132.362 42.752 137.498 41.648 143.162 41.648ZM268.104 79.52C268.104 82.016 267.96 84.656 267.672 87.44H204.6C205.08 95.216 207.72 101.312 212.52 105.728C217.416 110.048 223.32 112.208 230.232 112.208C235.896 112.208 240.6 110.912 244.344 108.32C248.184 105.632 250.872 102.08 252.408 97.664H266.52C264.408 105.248 260.184 111.44 253.848 116.24C247.512 120.944 239.64 123.296 230.232 123.296C222.744 123.296 216.024 121.616 210.072 118.256C204.216 114.896 199.608 110.144 196.248 104C192.888 97.76 191.208 90.56 191.208 82.4C191.208 74.24 192.84 67.088 196.104 60.944C199.368 54.8 203.928 50.096 209.784 46.832C215.736 43.472 222.552 41.792 230.232 41.792C237.72 41.792 244.344 43.424 250.104 46.688C255.864 49.952 260.28 54.464 263.352 60.224C266.52 65.888 268.104 72.32 268.104 79.52ZM254.568 76.784C254.568 71.792 253.464 67.52 251.256 63.968C249.048 60.32 246.024 57.584 242.184 55.76C238.44 53.84 234.264 52.88 229.656 52.88C223.032 52.88 217.368 54.992 212.664 59.216C208.056 63.44 205.416 69.296 204.744 76.784H254.568ZM374.047 70.304C377.695 70.88 381.007 72.368 383.983 74.768C387.055 77.168 389.455 80.144 391.183 83.696C393.007 87.248 393.919 91.04 393.919 95.072C393.919 100.16 392.623 104.768 390.031 108.896C387.439 112.928 383.647 116.144 378.655 118.544C373.759 120.848 367.951 122 361.231 122H323.791V21.632H359.791C366.607 21.632 372.415 22.784 377.215 25.088C382.015 27.296 385.615 30.32 388.015 34.16C390.415 38 391.615 42.32 391.615 47.12C391.615 53.072 389.983 58.016 386.719 61.952C383.551 65.792 379.327 68.576 374.047 70.304ZM336.895 64.976H358.927C365.071 64.976 369.823 63.536 373.183 60.656C376.543 57.776 378.223 53.792 378.223 48.704C378.223 43.616 376.543 39.632 373.183 36.752C369.823 33.872 364.975 32.432 358.639 32.432H336.895V64.976ZM360.079 111.2C366.607 111.2 371.695 109.664 375.343 106.592C378.991 103.52 380.815 99.248 380.815 93.776C380.815 88.208 378.895 83.84 375.055 80.672C371.215 77.408 366.079 75.776 359.647 75.776H336.895V111.2H360.079ZM418.872 30.272C416.376 30.272 414.264 29.408 412.536 27.68C410.808 25.952 409.944 23.84 409.944 21.344C409.944 18.848 410.808 16.736 412.536 15.008C414.264 13.28 416.376 12.416 418.872 12.416C421.272 12.416 423.288 13.28 424.92 15.008C426.648 16.736 427.512 18.848 427.512 21.344C427.512 23.84 426.648 25.952 424.92 27.68C423.288 29.408 421.272 30.272 418.872 30.272ZM425.208 43.088V122H412.104V43.088H425.208ZM480.085 41.792C486.901 41.792 492.853 43.28 497.941 46.256C503.125 49.232 506.965 52.976 509.461 57.488V43.088H522.709V123.728C522.709 130.928 521.173 137.312 518.101 142.88C515.029 148.544 510.613 152.96 504.853 156.128C499.189 159.296 492.565 160.88 484.981 160.88C474.613 160.88 465.973 158.432 459.061 153.536C452.149 148.64 448.069 141.968 446.821 133.52H459.781C461.221 138.32 464.197 142.16 468.709 145.04C473.221 148.016 478.645 149.504 484.981 149.504C492.181 149.504 498.037 147.248 502.549 142.736C507.157 138.224 509.461 131.888 509.461 123.728V107.168C506.869 111.776 503.029 115.616 497.941 118.688C492.853 121.76 486.901 123.296 480.085 123.296C473.077 123.296 466.693 121.568 460.933 118.112C455.269 114.656 450.805 109.808 447.541 103.568C444.277 97.328 442.645 90.224 442.645 82.256C442.645 74.192 444.277 67.136 447.541 61.088C450.805 54.944 455.269 50.192 460.933 46.832C466.693 43.472 473.077 41.792 480.085 41.792ZM509.461 82.4C509.461 76.448 508.261 71.264 505.861 66.848C503.461 62.432 500.197 59.072 496.069 56.768C492.037 54.368 487.573 53.168 482.677 53.168C477.781 53.168 473.317 54.32 469.285 56.624C465.253 58.928 462.037 62.288 459.637 66.704C457.237 71.12 456.037 76.304 456.037 82.256C456.037 88.304 457.237 93.584 459.637 98.096C462.037 102.512 465.253 105.92 469.285 108.32C473.317 110.624 477.781 111.776 482.677 111.776C487.573 111.776 492.037 110.624 496.069 108.32C500.197 105.92 503.461 102.512 505.861 98.096C508.261 93.584 509.461 88.352 509.461 82.4ZM636.092 122L612.188 80.96H596.348V122H583.244V21.632H615.644C623.228 21.632 629.612 22.928 634.796 25.52C640.076 28.112 644.012 31.616 646.604 36.032C649.196 40.448 650.492 45.488 650.492 51.152C650.492 58.064 648.476 64.16 644.444 69.44C640.508 74.72 634.556 78.224 626.588 79.952L651.788 122H636.092ZM596.348 70.448H615.644C622.748 70.448 628.076 68.72 631.628 65.264C635.18 61.712 636.956 57.008 636.956 51.152C636.956 45.2 635.18 40.592 631.628 37.328C628.172 34.064 622.844 32.432 615.644 32.432H596.348V70.448ZM665.958 82.256C665.958 74.192 667.59 67.136 670.854 61.088C674.118 54.944 678.582 50.192 684.246 46.832C690.006 43.472 696.39 41.792 703.398 41.792C710.31 41.792 716.31 43.28 721.398 46.256C726.486 49.232 730.278 52.976 732.774 57.488V43.088H746.022V122H732.774V107.312C730.182 111.92 726.294 115.76 721.11 118.832C716.022 121.808 710.07 123.296 703.254 123.296C696.246 123.296 689.91 121.568 684.246 118.112C678.582 114.656 674.118 109.808 670.854 103.568C667.59 97.328 665.958 90.224 665.958 82.256ZM732.774 82.4C732.774 76.448 731.574 71.264 729.174 66.848C726.774 62.432 723.51 59.072 719.382 56.768C715.35 54.368 710.886 53.168 705.99 53.168C701.094 53.168 696.63 54.32 692.598 56.624C688.566 58.928 685.35 62.288 682.95 66.704C680.55 71.12 679.35 76.304 679.35 82.256C679.35 88.304 680.55 93.584 682.95 98.096C685.35 102.512 688.566 105.92 692.598 108.32C696.63 110.624 701.094 111.776 705.99 111.776C710.886 111.776 715.35 110.624 719.382 108.32C723.51 105.92 726.774 102.512 729.174 98.096C731.574 93.584 732.774 88.352 732.774 82.4ZM800.278 53.888H783.718V122H770.614V53.888H760.39V43.088H770.614V37.472C770.614 28.64 772.87 22.208 777.382 18.176C781.99 14.048 789.334 11.984 799.414 11.984V22.928C793.654 22.928 789.574 24.08 787.174 26.384C784.87 28.592 783.718 32.288 783.718 37.472V43.088H800.278V53.888ZM847.669 53.888H831.109V122H818.005V53.888H807.781V43.088H818.005V37.472C818.005 28.64 820.261 22.208 824.773 18.176C829.381 14.048 836.725 11.984 846.805 11.984V22.928C841.045 22.928 836.965 24.08 834.565 26.384C832.261 28.592 831.109 32.288 831.109 37.472V43.088H847.669V53.888ZM876.051 15.44V122H862.947V15.44H876.051ZM970.385 79.52C970.385 82.016 970.241 84.656 969.953 87.44H906.881C907.361 95.216 910.001 101.312 914.801 105.728C919.697 110.048 925.601 112.208 932.513 112.208C938.177 112.208 942.881 110.912 946.625 108.32C950.465 105.632 953.153 102.08 954.689 97.664H968.801C966.689 105.248 962.465 111.44 956.129 116.24C949.793 120.944 941.921 123.296 932.513 123.296C925.025 123.296 918.305 121.616 912.353 118.256C906.497 114.896 901.889 110.144 898.529 104C895.169 97.76 893.489 90.56 893.489 82.4C893.489 74.24 895.121 67.088 898.385 60.944C901.649 54.8 906.209 50.096 912.065 46.832C918.017 43.472 924.833 41.792 932.513 41.792C940.001 41.792 946.625 43.424 952.385 46.688C958.145 49.952 962.561 54.464 965.633 60.224C968.801 65.888 970.385 72.32 970.385 79.52ZM956.849 76.784C956.849 71.792 955.745 67.52 953.537 63.968C951.329 60.32 948.305 57.584 944.465 55.76C940.721 53.84 936.545 52.88 931.937 52.88C925.313 52.88 919.649 54.992 914.945 59.216C910.337 63.44 907.697 69.296 907.025 76.784H956.849Z" fill="black"/>
<defs>
<filter id="filter0_d" x="1000" y="22" width="92.4808" height="108" filterUnits="userSpaceOnUse" color-interpolation-filters="sRGB">
<feFlood flood-opacity="0" result="BackgroundImageFix"/>
<feColorMatrix in="SourceAlpha" type="matrix" values="0 0 0 0 0 0 0 0 0 0 0 0 0 0 0 0 0 0 127 0"/>
<feOffset dy="4"/>
<feGaussianBlur stdDeviation="2"/>
<feColorMatrix type="matrix" values="0 0 0 0 0 0 0 0 0 0 0 0 0 0 0 0 0 0 0.25 0"/>
<feBlend mode="normal" in2="BackgroundImageFix" result="effect1_dropShadow"/>
<feBlend mode="normal" in="SourceGraphic" in2="effect1_dropShadow" result="shape"/>
</filter>
</defs>
</svg>
